<svg xmlns="http://www.w3.org/2000/svg" xmlns:xlink="http://www.w3.org/1999/xlink" width="32px" height="32px" viewBox="0 0 32 32" version="1.1"><defs/><g stroke="none" stroke-width="1" fill="none" fill-rule="evenodd"><g transform="translate(-310.000000, -202.000000)" fill="#7FC118"><g><path d="M324 220 L318 220 L318 216 L324 216 L324 210 L328 210 L328 216 L334 216 L334 220 L328 220 L328 226 L324 226 L324 220 ZM326 234 C334.8 234 342 226.8 342 218 C342 209.2 334.8 202 326 202 C317.2 202 310 209.2 310 218 C310 226.8 317.2 234 326 234 ZM326 230 C332.6 230 338 224.6 338 218 C338 211.4 332.6 206 326 206 C319.4 206 314 211.4 314 218 C314 224.6 319.4 230 326 230 Z"/></g></g></g></svg>