<svg xmlns="http://www.w3.org/2000/svg" width="33px" height="33px" viewBox="0 0 33 33"><g transform="translate(-71.000000, -125.000000)" fill="#767772"><g transform="translate(72.000000, 126.000000)"><path d="M31.4172394,24.2262535 L22.963831,15.7737465 L31.4145352,7.32214085 C31.7647324,6.97194366 31.7647324,6.40450704 31.4145352,6.05430986 L25.4945352,0.132957746 C25.144338,-0.217239437 24.5764507,-0.217239437 24.2262535,0.132957746 L15.7741972,8.58456338 L7.32349296,0.132957746 C6.98726761,-0.20371831 6.39188732,-0.20371831 6.05521127,0.132957746 L0.133859155,6.05340845 C-0.0342535211,6.22152113 -0.128901408,6.45002817 -0.128901408,6.6875493 C-0.128901408,6.92507042 -0.0342535211,7.15357746 0.133859155,7.32169014 L8.58591549,15.7737465 L0.132507042,24.2267042 C-0.0356056338,24.3952676 -0.130253521,24.6233239 -0.130253521,24.8608451 C-0.130253521,25.0988169 -0.0356056338,25.3273239 0.132507042,25.4949859 L6.05295775,31.4158873 C6.22107042,31.584 6.45002817,31.6786479 6.6884507,31.6786479 C6.92507042,31.6786479 7.15312676,31.584 7.32123944,31.4158873 L15.7741972,22.9629296 L24.2276056,31.4154366 C24.4029296,31.5903099 24.6314366,31.6781972 24.8617465,31.6781972 C25.0920563,31.6781972 25.3210141,31.5903099 25.496338,31.4154366 L31.4176901,25.4945352 C31.7674366,25.144338 31.7674366,24.5769014 31.4172394,24.2262535 L31.4172394,24.2262535 Z"></path></g></g></svg>