<svg width="32" height="32" viewBox="0 0 32 32" xmlns="http://www.w3.org/2000/svg"><title>dashboard</title><path d="M23.404 8.556c-2.039-1.601-4.61-2.556-7.404-2.556-6.627 0-12 5.373-12 12 0 3.521 1.516 6.687 3.931 8.882l-2.563 3.075c-3.294-2.931-5.369-7.202-5.369-11.958 0-8.837 7.163-16 16-16s16 7.163 16 16c0 4.756-2.075 9.027-5.369 11.958l-2.563-3.075c2.415-2.195 3.931-5.362 3.931-8.882 0-2.77-.939-5.321-2.515-7.352l-4.878 6.023-3.584 3.365h-2.933v-3.003l3.292-3.611 6.023-4.866z" fill="#ADAFA7"/></svg>