<?xml version="1.0" encoding="UTF-8" standalone="no"?>
<svg width="32px" height="32px" viewBox="0 0 32 32" version="1.1" xmlns="http://www.w3.org/2000/svg" xmlns:xlink="http://www.w3.org/1999/xlink" xmlns:sketch="http://www.bohemiancoding.com/sketch/ns">
    <!-- Generator: Sketch 3.0.4 (8053) - http://www.bohemiancoding.com/sketch -->
    <title>load-more</title>
    <desc>Created with Sketch.</desc>
    <defs></defs>
    <g id="Colors-&amp;-Symbols" stroke="none" stroke-width="1" fill="none" fill-rule="evenodd" sketch:type="MSPage">
        <g id="Icons" sketch:type="MSArtboardGroup" transform="translate(-117.000000, -212.000000)" fill="#2E5490">
            <path d="M119.001743,212 C117.896211,212 117,212.889262 117,214.001743 L117,241.998257 C117,243.103789 117.889262,244 119.001743,244 L146.998257,244 C148.103789,244 149,243.110738 149,241.998257 L149,214.001743 C149,212.896211 148.110738,212 146.998257,212 L119.001743,212 Z M122.000695,216 C121.448026,216 121,216.447469 121,217.000695 L121,238.999305 C121,239.551974 121.447469,240 122.000695,240 L143.999305,240 C144.551974,240 145,239.552531 145,238.999305 L145,217.000695 C145,216.448026 144.552531,216 143.999305,216 L122.000695,216 Z M125,220 L125,224 L141,224 L141,220 L125,220 Z M125,226 L125,230 L141,230 L141,226 L125,226 Z M125,232 L125,236 L141,236 L141,232 L125,232 Z" id="menu-2" sketch:type="MSShapeGroup"></path>
        </g>
    </g>
</svg>