<svg xmlns="http://www.w3.org/2000/svg" xmlns:xlink="http://www.w3.org/1999/xlink" width="32px" height="32px" viewBox="0 0 32 32" version="1.1"><g stroke="none" stroke-width="1" fill="none" fill-rule="evenodd"><g transform="translate(-310.000000, -243.000000)" fill="#7FC118"><g><path d="M338 265 L338 248 C338 247.4 337.6 247 337 247 L315 247 C314.4 247 314 247.4 314 248 L314 265 L319 265 C319.5 265 320 265.4 320 266 L320 271 L332 271 L332 266 C332 265.5 332.4 265 333 265 L338 265 ZM312 243 C310.9 243 310 243.9 310 245 L310 273 C310 274.1 310.9 275 312 275 L340 275 C341.1 275 342 274.1 342 273 L342 245 C342 243.9 341.1 243 340 243 L312 243 ZM318 257 L324.1 263 L326.1 263 L334.1 255 L331 252.1 L325 258 L321.1 254 L318 257 Z"/></g></g></g></svg>