<svg width="32" height="32" viewBox="0 0 32 32" xmlns="http://www.w3.org/2000/svg"><path d="M29.504 14h-1.504v16.003c0 1.102-.898 1.997-2.005 1.997h-19.99c-1.108 0-2.005-.894-2.005-1.997v-16.003h-1.504 1.504v-4h-4v1.501-4.504c0-.544.444-.997.993-.997h9.007v-5.003c0-.544.449-.997 1.002-.997h9.995c.547 0 1.002.446 1.002.997v5.003h9.007c.54 0 .993.446.993.997v4.504-1.501h-4v4h1.504zm-20.503-4c-.553 0-1.001.445-1.001.993v16.013c0 .549.445.993 1.001.993h13.998c.553 0 1.001-.445 1.001-.993v-16.013c0-.549-.445-.993-1.001-.993h-13.998zm4.999-6v2h4v-2h-4zm4.505 10c-.279 0-.505.228-.505.51v8.981c0 .281.214.51.505.51h.991c.279 0 .505-.228.505-.51v-8.981c0-.281-.214-.51-.505-.51h-.991zm-6 0c-.279 0-.505.228-.505.51v8.981c0 .281.214.51.505.51h.991c.279 0 .505-.228.505-.51v-8.981c0-.281-.214-.51-.505-.51h-.991z" fill="#D03131"/></svg>