<svg width="36" height="28" viewBox="0 0 36 28" xmlns="http://www.w3.org/2000/svg"><path d="M20 24h6v-.071c3.392-.485 6-3.403 6-6.929 0-3.866-3.134-7-7-7-1.092 0-2.126.25-3.047.696.031-.228.047-.461.047-.696 0-3.314-3.134-6-7-6s-7 2.686-7 6c0 1.606.736 3.064 1.935 4.141l-.988 1.971c-.303-.074-.62-.113-.946-.113-2.209 0-4 1.791-4 4s1.791 4 4 4h8v-4h4v4zm-12 4c-4.418 0-8-3.582-8-8 0-3.142 1.811-5.861 4.447-7.17-.291-.897-.447-1.847-.447-2.83 0-5.523 4.925-10 11-10 4.511 0 8.388 2.468 10.085 6 6.036.046 10.915 4.953 10.915 11 0 5.738-4.394 10.45-10 10.955v.045h-18zm4-10v2h12v-2h-12zm6-6l-6 6h12l-6-6z" fill="#EAEAE8"/></svg>